<?xml version="1.0" encoding="UTF-8"?>
<svg width="22px" height="22px" viewBox="0 0 22 22" version="1.1" xmlns="http://www.w3.org/2000/svg" xmlns:xlink="http://www.w3.org/1999/xlink">
    <!-- Generator: Sketch 51.2 (57519) - http://www.bohemiancoding.com/sketch -->
    <title>theicons.co copy 19</title>
    <desc>Created with Sketch.</desc>
    <defs></defs>
    <g id="Page-1" stroke="none" stroke-width="1" fill="none" fill-rule="evenodd">
        <g id="Organisation-picker-1" transform="translate(-1126.000000, -47.000000)" fill="#8492A6">
            <g id="Group-5" transform="translate(1126.000000, 47.000000)">
                <path d="M15.6324589,13.3059819 L20.7262988,18.400029 C21.0911018,18.7648468 21.0923427,19.3550922 20.7233647,19.7240853 C20.3569412,20.0905236 19.7647611,20.0924334 19.3993622,19.7270196 L14.3055222,14.6329726 C13.1215941,15.5375431 11.6421154,16.0748611 10.0371444,16.0748611 C6.15063687,16.0748611 3,12.9240961 3,9.03743054 C3,5.15076497 6.15063687,2 10.0371444,2 C13.9236519,2 17.0742888,5.15076497 17.0742888,9.03743054 C17.0742888,10.6424668 16.5369927,12.1220057 15.6324589,13.3059819 Z M10.0371444,14.1982129 C12.8872499,14.1982129 15.197717,11.887652 15.197717,9.03743054 C15.197717,6.18720912 12.8872499,3.87664814 10.0371444,3.87664814 C7.18703888,3.87664814 4.87657184,6.18720912 4.87657184,9.03743054 C4.87657184,11.887652 7.18703888,14.1982129 10.0371444,14.1982129 Z" id="Combined-Shape"></path>
            </g>
        </g>
    </g>
</svg>